<mxfile host="app.diagrams.net" agent="Mozilla/5.0 (Windows NT 10.0; Win64; x64; rv:138.0) Gecko/20100101 Firefox/138.0" version="28.1.0">
  <diagram name="Page-1" id="1qW2JOKXYpLRvEJQn6gx">
    <mxGraphModel dx="1107" dy="511" grid="1" gridSize="10" guides="1" tooltips="1" connect="1" arrows="1" fold="1" page="1" pageScale="1" pageWidth="1700" pageHeight="2400" math="0" shadow="0">
      <root>
        <mxCell id="0" />
        <mxCell id="1" parent="0" />
        <mxCell id="lKeDKP6vbJKKnMthS0r1-26" value="" style="edgeStyle=orthogonalEdgeStyle;rounded=0;sketch=1;hachureGap=4;jiggle=2;curveFitting=1;orthogonalLoop=1;jettySize=auto;html=1;fontFamily=Architects Daughter;fontSource=https%3A%2F%2Ffonts.googleapis.com%2Fcss%3Ffamily%3DArchitects%2BDaughter;entryX=0.511;entryY=0.011;entryDx=0;entryDy=0;entryPerimeter=0;" parent="1" source="lKeDKP6vbJKKnMthS0r1-22" target="lKeDKP6vbJKKnMthS0r1-24" edge="1">
          <mxGeometry relative="1" as="geometry">
            <mxPoint x="325" y="95" as="targetPoint" />
          </mxGeometry>
        </mxCell>
        <mxCell id="lKeDKP6vbJKKnMthS0r1-22" value="&lt;div style=&quot;color: #d4d4d4;background-color: #1e1e1e;font-family: Consolas, &#39;Courier New&#39;, monospace;font-weight: normal;font-size: 16px;line-height: 22px;white-space: pre;&quot;&gt;&lt;div&gt;&lt;span style=&quot;color: #d4d4d4;&quot;&gt;INPUT.CSV&lt;/span&gt;&lt;/div&gt;&lt;/div&gt;" style="text;html=1;align=center;verticalAlign=middle;resizable=0;points=[];autosize=1;strokeColor=#b85450;fillColor=#f8cecc;fontFamily=Helvetica;fontSize=17;" parent="1" vertex="1">
          <mxGeometry x="145" y="55" width="100" height="40" as="geometry" />
        </mxCell>
        <mxCell id="lKeDKP6vbJKKnMthS0r1-29" value="" style="edgeStyle=orthogonalEdgeStyle;rounded=0;sketch=1;hachureGap=4;jiggle=2;curveFitting=1;orthogonalLoop=1;jettySize=auto;html=1;fontFamily=Architects Daughter;fontSource=https%3A%2F%2Ffonts.googleapis.com%2Fcss%3Ffamily%3DArchitects%2BDaughter;" parent="1" source="lKeDKP6vbJKKnMthS0r1-23" target="lKeDKP6vbJKKnMthS0r1-28" edge="1">
          <mxGeometry relative="1" as="geometry" />
        </mxCell>
        <mxCell id="lKeDKP6vbJKKnMthS0r1-23" value="&lt;div style=&quot;color: #d4d4d4;background-color: #1e1e1e;font-family: Consolas, &#39;Courier New&#39;, monospace;font-weight: normal;font-size: 16px;line-height: 22px;white-space: pre;&quot;&gt;&lt;div&gt;&lt;span style=&quot;color: #d4d4d4;&quot;&gt;Stage1.CSV&lt;/span&gt;&lt;/div&gt;&lt;/div&gt;" style="text;html=1;align=center;verticalAlign=middle;resizable=0;points=[];autosize=1;strokeColor=#b85450;fillColor=#f8cecc;fontFamily=Helvetica;fontSize=17;" parent="1" vertex="1">
          <mxGeometry x="165" y="195" width="110" height="40" as="geometry" />
        </mxCell>
        <mxCell id="lKeDKP6vbJKKnMthS0r1-27" value="" style="edgeStyle=orthogonalEdgeStyle;rounded=0;sketch=1;hachureGap=4;jiggle=2;curveFitting=1;orthogonalLoop=1;jettySize=auto;html=1;fontFamily=Architects Daughter;fontSource=https%3A%2F%2Ffonts.googleapis.com%2Fcss%3Ffamily%3DArchitects%2BDaughter;" parent="1" source="lKeDKP6vbJKKnMthS0r1-24" target="lKeDKP6vbJKKnMthS0r1-23" edge="1">
          <mxGeometry relative="1" as="geometry" />
        </mxCell>
        <mxCell id="lKeDKP6vbJKKnMthS0r1-24" value="&lt;div&gt;Create Single Python program that will do following&lt;/div&gt;&lt;div&gt;&lt;br&gt;&lt;/div&gt;&lt;div&gt;Read &quot;readme.md&quot; and also follow important sections like&lt;div style=&quot;color: rgb(212, 212, 212); background-color: rgb(30, 30, 30); font-family: Consolas, &amp;quot;Courier New&amp;quot;, monospace; font-weight: normal; font-size: 16px; line-height: 22px; white-space: pre;&quot;&gt;&lt;div&gt;&lt;span style=&quot;color: rgb(86, 156, 214); font-weight: bold;&quot;&gt;**Smart Duplicate Handling**&lt;/span&gt;&lt;/div&gt;&lt;/div&gt;and&amp;nbsp;&lt;/div&gt;&lt;div&gt;&lt;div style=&quot;color: rgb(212, 212, 212); background-color: rgb(30, 30, 30); font-family: Consolas, &amp;quot;Courier New&amp;quot;, monospace; font-weight: normal; font-size: 16px; line-height: 22px; white-space: pre;&quot;&gt;&lt;div&gt;&lt;span style=&quot;color: rgb(86, 156, 214); font-weight: bold;&quot;&gt;**Output Generation**&lt;/span&gt;&lt;/div&gt;&lt;/div&gt;&lt;/div&gt;" style="text;html=1;align=center;verticalAlign=middle;resizable=0;points=[];autosize=1;strokeColor=#6c8ebf;fillColor=#dae8fc;fontFamily=Helvetica;fontSize=17;" parent="1" vertex="1">
          <mxGeometry x="560" y="131" width="460" height="140" as="geometry" />
        </mxCell>
        <mxCell id="lKeDKP6vbJKKnMthS0r1-32" value="" style="edgeStyle=orthogonalEdgeStyle;rounded=0;sketch=1;hachureGap=4;jiggle=2;curveFitting=1;orthogonalLoop=1;jettySize=auto;html=1;fontFamily=Architects Daughter;fontSource=https%3A%2F%2Ffonts.googleapis.com%2Fcss%3Ffamily%3DArchitects%2BDaughter;entryX=0.071;entryY=0.617;entryDx=0;entryDy=0;entryPerimeter=0;" parent="1" source="lKeDKP6vbJKKnMthS0r1-28" target="lKeDKP6vbJKKnMthS0r1-30" edge="1">
          <mxGeometry relative="1" as="geometry">
            <mxPoint x="630" y="510" as="targetPoint" />
          </mxGeometry>
        </mxCell>
        <mxCell id="lKeDKP6vbJKKnMthS0r1-28" value="&lt;div&gt;Next read &lt;br&gt;&lt;/div&gt;&lt;div&gt;&lt;div style=&quot;color: #d4d4d4;background-color: #1e1e1e;font-family: Consolas, &#39;Courier New&#39;, monospace;font-weight: normal;font-size: 16px;line-height: 22px;white-space: pre;&quot;&gt;&lt;div&gt;&lt;span style=&quot;color: #569cd6;font-weight: bold;&quot;&gt;## 2. Website Validator and Enricher (&lt;/span&gt;&lt;span style=&quot;color: #ce9178;font-weight: bold;&quot;&gt;`validate_websites.py`&lt;/span&gt;&lt;span style=&quot;color: #569cd6;font-weight: bold;&quot;&gt;)&lt;/span&gt;&lt;/div&gt;&lt;/div&gt;&lt;br&gt;&lt;/div&gt;" style="text;html=1;align=center;verticalAlign=middle;resizable=0;points=[];autosize=1;strokeColor=#6c8ebf;fillColor=#dae8fc;fontFamily=Helvetica;fontSize=17;" parent="1" vertex="1">
          <mxGeometry x="165" y="305" width="560" height="80" as="geometry" />
        </mxCell>
        <mxCell id="lKeDKP6vbJKKnMthS0r1-37" value="" style="edgeStyle=orthogonalEdgeStyle;rounded=0;sketch=1;hachureGap=4;jiggle=2;curveFitting=1;orthogonalLoop=1;jettySize=auto;html=1;fontFamily=Architects Daughter;fontSource=https%3A%2F%2Ffonts.googleapis.com%2Fcss%3Ffamily%3DArchitects%2BDaughter;" parent="1" source="lKeDKP6vbJKKnMthS0r1-30" target="lKeDKP6vbJKKnMthS0r1-35" edge="1">
          <mxGeometry relative="1" as="geometry" />
        </mxCell>
        <mxCell id="lKeDKP6vbJKKnMthS0r1-30" value="&lt;div style=&quot;color: #d4d4d4;background-color: #1e1e1e;font-family: Consolas, &#39;Courier New&#39;, monospace;font-weight: normal;font-size: 16px;line-height: 22px;white-space: pre;&quot;&gt;&lt;div&gt;&lt;span style=&quot;color: #d4d4d4;&quot;&gt;&quot;Stage2.CSV&quot;&lt;/span&gt;&lt;/div&gt;&lt;/div&gt;" style="text;html=1;align=center;verticalAlign=middle;resizable=0;points=[];autosize=1;strokeColor=#b85450;fillColor=#f8cecc;fontFamily=Helvetica;fontSize=17;" parent="1" vertex="1">
          <mxGeometry x="910" y="325" width="130" height="40" as="geometry" />
        </mxCell>
        <mxCell id="lKeDKP6vbJKKnMthS0r1-38" value="" style="edgeStyle=orthogonalEdgeStyle;rounded=0;sketch=1;hachureGap=4;jiggle=2;curveFitting=1;orthogonalLoop=1;jettySize=auto;html=1;fontFamily=Architects Daughter;fontSource=https%3A%2F%2Ffonts.googleapis.com%2Fcss%3Ffamily%3DArchitects%2BDaughter;" parent="1" source="lKeDKP6vbJKKnMthS0r1-35" target="lKeDKP6vbJKKnMthS0r1-36" edge="1">
          <mxGeometry relative="1" as="geometry" />
        </mxCell>
        <mxCell id="lKeDKP6vbJKKnMthS0r1-35" value="aaa" style="text;html=1;align=center;verticalAlign=middle;resizable=0;points=[];autosize=1;strokeColor=#6c8ebf;fillColor=#dae8fc;fontFamily=Helvetica;fontSize=17;" parent="1" vertex="1">
          <mxGeometry x="940" y="450" width="50" height="30" as="geometry" />
        </mxCell>
        <mxCell id="lKeDKP6vbJKKnMthS0r1-36" value="Final_Output As CSV" style="text;html=1;align=center;verticalAlign=middle;resizable=0;points=[];autosize=1;strokeColor=#b85450;fillColor=#f8cecc;fontFamily=Helvetica;fontSize=17;" parent="1" vertex="1">
          <mxGeometry x="145" y="490" width="190" height="30" as="geometry" />
        </mxCell>
      </root>
    </mxGraphModel>
  </diagram>
</mxfile>
